<svg xmlns="http://www.w3.org/2000/svg" width="512" height="512" viewBox="0 0 438.536 438.535"><path data-original="#000000" class="active-path" data-old_color="#5a6060" fill="#5a6060" d="M7.732 146.687h93.199v279.878h-93.2zm399.064 25.565c-19.577-21.371-45.47-32.058-77.665-32.058-11.861 0-22.644 1.459-32.342 4.379-9.695 2.918-17.884 7.012-24.57 12.285-6.682 5.272-12.004 10.167-15.955 14.684-3.757 4.29-7.43 9.287-11.016 14.94v-39.797h-92.92l.284 13.558c.191 9.04.285 36.904.285 83.596 0 46.695-.188 107.603-.566 182.728h92.917V270.384c0-9.6 1.03-17.224 3.106-22.877 3.956-9.607 9.928-17.65 17.935-24.144 8.006-6.5 17.934-9.748 29.8-9.748 16.187 0 28.1 5.6 35.727 16.803 7.624 11.202 11.436 26.69 11.436 46.46v149.68h92.918V266.152c-.007-41.238-9.79-72.536-29.374-93.9zM54.896 11.97c-15.625 0-28.286 4.569-37.985 13.698C7.212 34.8 2.366 46.328 2.366 60.264c0 13.74 4.707 25.23 14.121 34.453 9.412 9.224 21.84 13.839 37.279 13.839h.564c15.818 0 28.576-4.61 38.27-13.84 9.696-9.223 14.45-20.707 14.262-34.452-.188-13.935-4.992-25.465-14.404-34.596-9.41-9.133-21.935-13.698-37.562-13.698z"/></svg>